<?xml version="1.0" encoding="UTF-8"?>
<svg id="_图层_2" data-name="图层 2" xmlns="http://www.w3.org/2000/svg" viewBox="0 0 447.93 113.29">
  <defs>
    <style>
      .cls-1 {
        fill: #000;
        stroke-width: 0px;
      }
    </style>
  </defs>
  <g id="_图层_1-2" data-name="图层 1">
    <g>
      <path class="cls-1" d="M255.88,110.22l3.58-11.93c5.49,1.75,16.93,3.95,24.82.86,2.04-.8,3.47-2.34,4.46-4.23.99-1.89,1.49-4.26,1.49-7.11v-8.27l2.88.47c-.43,2.04-1.5,3.9-3.21,5.57-1.7,1.67-3.8,3.02-6.27,4.04-2.48,1.02-5.11,1.53-7.9,1.53-4.46,0-8.44-1.04-11.94-3.11-3.5-2.07-6.26-4.95-8.27-8.64-2.01-3.68-3.02-7.94-3.02-12.77s.99-9.34,2.97-13.15c1.98-3.81,4.71-6.81,8.17-9.01,3.47-2.2,7.37-3.3,11.71-3.3,1.86,0,3.64.22,5.34.65,1.7.43,3.28,1.01,4.74,1.72,1.45.71,2.75,1.55,3.9,2.51,1.15.96,2.07,2,2.79,3.11.71,1.12,1.19,2.26,1.44,3.44l-3.07.74.56-11.15h14.12v45.34c0,4.03-.6,7.6-1.81,10.73-1.21,3.13-2.97,5.79-5.3,7.99-2.32,2.2-4.83,3.87-8.41,4.97-13.75,4.23-27.87.94-33.78-1.01ZM278.88,79.65c2.42,0,4.51-.54,6.27-1.63,1.77-1.08,3.13-2.58,4.09-4.51.96-1.92,1.44-4.18,1.44-6.78s-.48-4.88-1.44-6.83-2.32-3.47-4.09-4.55c-1.76-1.08-3.86-1.63-6.27-1.63s-4.4.54-6.13,1.63c-1.73,1.08-3.08,2.6-4.04,4.55-.96,1.95-1.44,4.23-1.44,6.83s.48,4.86,1.44,6.78c.96,1.92,2.31,3.42,4.04,4.51,1.73,1.08,3.78,1.63,6.13,1.63Z"/>
      <path class="cls-1" d="M335.73,92.47c-5.45,0-10.19-1.1-14.21-3.3-4.03-2.2-7.15-5.2-9.38-9.01-2.23-3.81-3.34-8.16-3.34-13.05,0-3.78.62-7.25,1.86-10.41,1.24-3.16,2.97-5.9,5.2-8.22s4.88-4.12,7.94-5.39c3.07-1.27,6.42-1.9,10.08-1.9s6.64.62,9.52,1.86c2.88,1.24,5.37,2.97,7.48,5.2,2.1,2.23,3.72,4.86,4.83,7.9,1.11,3.04,1.61,6.35,1.49,9.94l-.09,5.53h-39.3l-2.14-9.9h29.36l-1.58,1.77v-1.86c-.13-1.55-.6-2.93-1.44-4.13-.84-1.21-1.94-2.15-3.3-2.83-1.36-.68-2.91-1.02-4.64-1.02-2.42,0-4.48.48-6.18,1.44-1.7.96-2.99,2.35-3.86,4.18-.87,1.83-1.3,4.07-1.3,6.74s.57,5.1,1.72,7.11c1.15,2.01,2.82,3.58,5.02,4.69,2.2,1.11,4.81,1.67,7.85,1.67,2.1,0,3.98-.31,5.62-.93,1.64-.62,3.42-1.67,5.34-3.16l6.97,9.85c-1.92,1.67-3.96,3.04-6.13,4.09-2.17,1.05-4.38,1.84-6.64,2.37-2.26.53-4.51.79-6.74.79Z"/>
      <path class="cls-1" d="M382.09,92.37c-4.15,0-7.85-1.1-11.1-3.3-3.25-2.2-5.84-5.23-7.76-9.11-1.92-3.87-2.88-8.25-2.88-13.15s.96-9.44,2.88-13.29c1.92-3.84,4.55-6.86,7.9-9.06,3.34-2.2,7.15-3.3,11.43-3.3,2.35,0,4.51.34,6.46,1.02,1.95.68,3.67,1.63,5.16,2.83,1.49,1.21,2.75,2.6,3.81,4.18,1.05,1.58,1.83,3.27,2.32,5.06l-3.07-.37v-11.71h14.77v49.33h-15.05v-11.89l3.35-.09c-.5,1.73-1.3,3.38-2.42,4.92-1.12,1.55-2.48,2.91-4.09,4.09-1.61,1.18-3.41,2.11-5.39,2.79-1.98.68-4.09,1.02-6.32,1.02ZM386.18,79.83c2.29,0,4.27-.53,5.95-1.58,1.67-1.05,2.97-2.55,3.9-4.51.93-1.95,1.39-4.26,1.39-6.92s-.47-4.97-1.39-6.92c-.93-1.95-2.23-3.47-3.9-4.55-1.67-1.08-3.66-1.63-5.95-1.63s-4.17.54-5.81,1.63c-1.64,1.08-2.93,2.6-3.86,4.55-.93,1.95-1.39,4.26-1.39,6.92s.46,4.97,1.39,6.92c.93,1.95,2.21,3.45,3.86,4.51,1.64,1.05,3.58,1.58,5.81,1.58Z"/>
      <path class="cls-1" d="M20.81,92.29c-4.58,0-8.66-.76-12.22-2.28-3.56-1.52-6.43-3.61-8.59-6.27l8.27-7.06c1.86,2.04,3.96,3.52,6.32,4.41,2.35.9,4.71,1.35,7.06,1.35.93,0,1.78-.11,2.55-.33.77-.22,1.44-.53,2-.93.56-.4.98-.9,1.25-1.49.28-.59.42-1.22.42-1.9,0-1.36-.56-2.42-1.67-3.16-.62-.37-1.58-.79-2.88-1.25-1.3-.47-2.97-.98-5.02-1.53-3.16-.8-5.84-1.75-8.04-2.83-2.2-1.08-3.95-2.31-5.25-3.67-1.11-1.3-1.97-2.71-2.55-4.23-.59-1.52-.88-3.21-.88-5.06,0-2.23.5-4.26,1.49-6.09.99-1.83,2.37-3.39,4.13-4.69,1.76-1.3,3.79-2.31,6.09-3.02,2.29-.71,4.71-1.07,7.25-1.07s5.02.31,7.43.93c2.42.62,4.66,1.5,6.74,2.65,2.07,1.15,3.89,2.49,5.43,4.04l-7.06,7.8c-1.11-1.05-2.37-2.01-3.76-2.88-1.39-.87-2.83-1.55-4.32-2.04-1.49-.5-2.82-.74-3.99-.74-1.05,0-2,.09-2.83.28-.84.19-1.53.48-2.09.88-.56.4-.98.88-1.25,1.44-.28.56-.42,1.18-.42,1.86s.17,1.33.51,1.95c.34.62.82,1.15,1.44,1.58.68.37,1.69.81,3.02,1.3,1.33.5,3.14,1.05,5.43,1.67,2.97.81,5.5,1.7,7.57,2.69,2.07.99,3.73,2.14,4.97,3.44,1.05,1.11,1.83,2.38,2.32,3.81.5,1.43.74,3.01.74,4.74,0,3.04-.85,5.73-2.55,8.08-1.7,2.35-4.04,4.21-7.01,5.57-2.97,1.36-6.32,2.04-10.03,2.04Z"/>
      <path class="cls-1" d="M45.25,111.8V42.21h12.73l.37,11.06-2.42-.84c.43-1.98,1.5-3.81,3.21-5.48,1.7-1.67,3.82-3.03,6.36-4.09,2.54-1.05,5.2-1.58,7.99-1.58,4.27,0,8.08,1.1,11.43,3.3,3.34,2.2,5.98,5.2,7.9,9.01,1.92,3.81,2.88,8.19,2.88,13.15s-.96,9.26-2.88,13.1c-1.92,3.84-4.55,6.86-7.9,9.06-3.34,2.2-7.15,3.3-11.43,3.3-2.85,0-5.56-.54-8.13-1.63-2.57-1.08-4.74-2.52-6.5-4.32-1.77-1.8-2.9-3.72-3.39-5.76l3.07-1.3v32.61h-13.29ZM70.52,80.86c2.42,0,4.55-.59,6.41-1.77,1.86-1.18,3.31-2.83,4.37-4.97,1.05-2.14,1.58-4.6,1.58-7.39s-.53-5.23-1.58-7.34c-1.05-2.11-2.49-3.75-4.32-4.92-1.83-1.18-3.98-1.76-6.46-1.76s-4.64.57-6.5,1.72c-1.86,1.15-3.31,2.79-4.37,4.92-1.05,2.14-1.58,4.6-1.58,7.39s.53,5.25,1.58,7.39c1.05,2.14,2.51,3.79,4.37,4.97,1.86,1.18,4.03,1.77,6.5,1.77Z"/>
      <path class="cls-1" d="M121.24,92.29c-4.09,0-7.77-1.11-11.06-3.34-3.28-2.23-5.88-5.26-7.8-9.11-1.92-3.84-2.88-8.24-2.88-13.19s.98-9.35,2.93-13.19c1.95-3.84,4.6-6.84,7.94-9.01,3.35-2.17,7.15-3.25,11.43-3.25,2.42,0,4.63.36,6.64,1.07,2.01.71,3.78,1.69,5.29,2.93,1.52,1.24,2.8,2.66,3.86,4.27,1.05,1.61,1.8,3.35,2.23,5.2l-2.79-.46v-11.99h13.1v49.15h-13.29v-11.8l2.97-.28c-.5,1.73-1.3,3.38-2.41,4.92-1.12,1.55-2.49,2.93-4.13,4.13-1.64,1.21-3.48,2.17-5.53,2.88s-4.21,1.07-6.5,1.07ZM124.86,80.86c2.48,0,4.65-.59,6.5-1.77,1.86-1.18,3.3-2.83,4.32-4.97,1.02-2.14,1.53-4.63,1.53-7.48s-.51-5.23-1.53-7.34c-1.02-2.1-2.46-3.76-4.32-4.97s-4.03-1.81-6.5-1.81-4.54.6-6.36,1.81c-1.83,1.21-3.27,2.87-4.32,4.97-1.05,2.11-1.58,4.55-1.58,7.34s.53,5.34,1.58,7.48c1.05,2.14,2.49,3.79,4.32,4.97,1.83,1.18,3.95,1.77,6.36,1.77Z"/>
      <path class="cls-1" d="M156.23,91.36v-49.15h12.73l.47,15.79-2.23-6.76c2.86-7.83,12.43-10.05,18.67-10.05v13.86c-3.91,0-7.55.07-10.19,1.23-3.59,1.58-4.84,4.05-5.37,5.35-.53,1.3-.79,2.73-.79,4.27v25.45h-13.28Z"/>
      <path class="cls-1" d="M418.29,91.36v-49.15h12.73l.47,15.79-2.23-6.76c2.86-7.83,12.43-10.05,18.67-10.05v13.86c-3.91,0-7.55.07-10.19,1.23-3.59,1.58-4.84,4.05-5.37,5.35-.53,1.3-.79,2.73-.79,4.27v25.45h-13.28Z"/>
      <g>
        <path class="cls-1" d="M195.11,69.24c-1.86-1.08-4.19.27-4.19,2.42l-.02,40.13h9.23v-28.99l43.62,25.18,4.62-8-53.26-30.75Z"/>
        <path class="cls-1" d="M198.68,59.86c-1.45.84-1.45,2.93,0,3.76l31.34,18.1,4.28-7.41-21.77-12.57,39.54-22.83-4.28-7.41-49.1,28.35Z"/>
        <path class="cls-1" d="M190.91,52.04c0,2.15,2.33,3.5,4.19,2.42l2.53-1.46c.06-.03,33.77-19.48,33.77-19.48l-4.62-8-26.67,15.4V0h-9.23l.02,52.04Z"/>
      </g>
    </g>
  </g>
</svg>