<svg width="157" height="25" viewBox="0 0 157 25" fill="none" xmlns="http://www.w3.org/2000/svg">
<g clip-path="url(#clip0_33_19)">
<path d="M102.85 18.526H107.92V17.048H102.75V15.4232H103.809V16.0903H107.92V14.9637H108.884V16.0903H113.756V17.048H108.884V18.526H113.798V19.4976H108.884V20.9757H114.422V21.9334H102.229V20.9757H107.923V19.4976H102.853V18.526H102.85ZM104.721 14.6177H102.937V9.14551H113.801V12.8462C113.801 13.8178 112.992 14.6177 112.017 14.6177H104.723H104.721ZM103.915 11.3543H112.839V10.1032H103.915V11.3543ZM112.014 13.66C112.469 13.66 112.836 13.2946 112.836 12.8435V12.3093H103.912V13.66H112.014Z" fill="#727272"/>
<path d="M128.204 21.9889L122.198 16.572C121.32 18.8362 119.693 20.6796 116.504 22.0027L116.136 21.117C121.574 18.9082 122.128 14.759 122.128 9.80718V9.23145H123.093V9.80718C123.093 11.9025 122.992 13.829 122.527 15.5894L128.859 21.2858L128.207 21.9889H128.204ZM119.718 15.8551L116.446 11.8167L117.195 11.2271L120.467 15.2655L119.718 15.8551ZM124.865 15.8551L128.137 11.8167L127.388 11.2271L124.116 15.2655L124.865 15.8551Z" fill="#727272"/>
<path d="M134.731 12.9983V20.2696C134.731 20.9588 134.166 21.5346 133.5 21.5346H131.248V15.8658L131.022 16.2589L130.186 15.7662C130.894 14.5428 131.532 13.0093 131.758 10.5625H130.54V9.60477H134.759V10.5625H132.733C132.647 11.5063 132.521 12.3201 132.337 13.0093C132.365 12.9955 132.407 12.9955 132.48 12.9955H134.731V12.9983ZM132.719 13.956H132.212V20.5824H133.5C133.656 20.5824 133.77 20.4412 133.77 20.2724V13.956H132.719ZM135.509 9.30029H143.101V10.258H139.773V11.2987H142.989V16.0236C142.989 16.854 142.296 17.5294 141.459 17.5294H139.478C139.308 18.1355 139.096 18.6698 138.798 19.1625L143.132 21.0889L142.75 21.9747L138.218 19.9624C137.58 20.7346 136.716 21.41 135.626 22.0024L135.158 21.172C136.022 20.6793 136.744 20.1727 137.296 19.5555L135.255 18.6421L135.637 17.7563L137.889 18.7556C138.115 18.3764 138.299 17.9833 138.455 17.5321H135.623V11.3015H138.809V10.2608H135.509V9.30306V9.30029ZM136.588 13.956H138.812V12.2537H136.588V13.956ZM136.588 16.0236V16.5717H138.697C138.767 16.1066 138.812 15.6278 138.812 15.0797V14.9247H136.588V16.0208V16.0236ZM141.459 16.5717C141.785 16.5717 142.025 16.3475 142.025 16.0236V14.9275H139.773V15.0825C139.773 15.6306 139.731 16.1094 139.659 16.5744H141.457L141.459 16.5717ZM139.773 12.2537V13.956H142.025V12.2537H139.773Z" fill="#727272"/>
<path d="M147.321 11.0194V21.6372H146.342V12.384L147.321 11.0222V11.0194ZM148.101 17.513H152.209V12.7743H148.555V10.5156H149.572V11.8193H152.209V9.18701H153.173V11.8193H156.927V12.777H153.173V17.5157H157.139V18.4734H153.173V21.9915H152.209V18.4734H148.101V17.5157V17.513Z" fill="#727272"/>
<path d="M145.595 15.6638L144.748 15.1129C145.81 13.4992 146.679 11.0718 146.816 9.3335L147.828 9.411C147.68 11.296 146.741 13.9255 145.598 15.661L145.595 15.6638Z" fill="#727272"/>
<path d="M4.08581 20.6875C3.21625 20.6875 2.43309 20.538 1.73633 20.2363C1.03957 19.9346 0.459863 19.4917 0 18.9022L1.38238 17.7258C1.77814 18.1825 2.20734 18.5147 2.67557 18.7167C3.14379 18.9188 3.67333 19.0212 4.26418 19.0212C4.50108 19.0212 4.72126 18.9908 4.92471 18.9326C5.12817 18.8745 5.30654 18.7859 5.45704 18.6669C5.60754 18.5479 5.7246 18.4095 5.80263 18.2462C5.88067 18.0829 5.92248 17.903 5.92248 17.7064C5.92248 17.366 5.79706 17.0919 5.54623 16.8844C5.41523 16.793 5.20621 16.6906 4.92471 16.5799C4.64044 16.4692 4.27533 16.3557 3.8294 16.2367C3.06575 16.0401 2.44145 15.8187 1.95372 15.5696C1.46599 15.3205 1.09252 15.0409 0.827753 14.7281C0.629873 14.479 0.484946 14.2078 0.392974 13.9144C0.301001 13.621 0.253621 13.2971 0.253621 12.9428C0.253621 12.511 0.348381 12.1152 0.540687 11.7581C0.730207 11.3983 0.994976 11.0855 1.32942 10.817C1.66387 10.5485 2.05963 10.3437 2.51392 10.1998C2.96821 10.0559 3.45037 9.98389 3.96597 9.98389C4.4537 9.98389 4.93586 10.0503 5.41802 10.1804C5.89739 10.3105 6.34332 10.5015 6.75023 10.7478C7.15714 10.997 7.49995 11.2904 7.77586 11.6308L6.61088 12.9041C6.36004 12.6549 6.08691 12.4363 5.79149 12.2481C5.49606 12.0598 5.19506 11.9104 4.89406 11.808C4.59027 11.7028 4.31435 11.6502 4.0663 11.6502C3.79039 11.6502 3.53955 11.6779 3.31659 11.7277C3.09362 11.7803 2.9041 11.8578 2.7536 11.963C2.6031 12.0681 2.48605 12.1982 2.40801 12.356C2.32997 12.5138 2.28817 12.6882 2.28817 12.8847C2.3021 13.0535 2.34391 13.2141 2.41637 13.3663C2.48883 13.5158 2.59195 13.6431 2.72295 13.7483C2.86787 13.8535 3.08526 13.9642 3.37512 14.0804C3.66497 14.1995 4.03286 14.3102 4.48157 14.4126C5.13932 14.5814 5.68279 14.7696 6.10921 14.9717C6.53563 15.1738 6.87565 15.4063 7.12648 15.6665C7.38846 15.9156 7.57241 16.2034 7.67832 16.5301C7.78423 16.8567 7.83718 17.222 7.83718 17.6289C7.83718 18.2157 7.66996 18.7444 7.33272 19.2066C6.99828 19.6717 6.54678 20.0343 5.98101 20.2944C5.41523 20.5546 4.78257 20.6875 4.08581 20.6875Z" fill="white"/>
<path d="M9.49268 24.8032V10.1996H11.5439V12.5524L11.229 12.3752C11.307 11.9822 11.5328 11.6085 11.9007 11.2487C12.2686 10.8888 12.7201 10.5954 13.2524 10.3657C13.7847 10.1359 14.3338 10.0225 14.8995 10.0225C15.8332 10.0225 16.6638 10.2522 17.3856 10.7089C18.1102 11.1656 18.6816 11.7939 19.1024 12.5911C19.5233 13.3883 19.7351 14.3045 19.7351 15.3341C19.7351 16.3638 19.5288 17.2662 19.1136 18.0689C18.6983 18.8716 18.1297 19.5054 17.4051 19.9704C16.6805 20.4354 15.8667 20.6652 14.9581 20.6652C14.3533 20.6652 13.768 20.5434 13.2022 20.3026C12.6365 20.0618 12.1571 19.7518 11.7613 19.3725C11.3656 18.9933 11.1231 18.6031 11.0311 18.1962L11.5439 17.9222V24.8032H9.49268ZM14.6236 18.8051C15.2284 18.8051 15.7691 18.6557 16.2429 18.3539C16.7167 18.055 17.093 17.6426 17.3689 17.1194C17.6448 16.5963 17.7841 16.0012 17.7841 15.3369C17.7841 14.6726 17.6504 14.0803 17.38 13.5627C17.1097 13.0478 16.739 12.6382 16.2652 12.3365C15.7914 12.0348 15.2451 11.8853 14.6264 11.8853C14.0077 11.8853 13.4614 12.032 12.9876 12.3254C12.5138 12.6188 12.1404 13.0284 11.8617 13.5516C11.5857 14.0747 11.4464 14.6698 11.4464 15.3341C11.4464 15.9984 11.5857 16.5963 11.8617 17.1167C12.1376 17.6398 12.5138 18.0522 12.9876 18.3512C13.4614 18.6529 14.0077 18.8024 14.6264 18.8024L14.6236 18.8051Z" fill="white"/>
<path d="M25.3426 20.6877C24.4869 20.6877 23.7066 20.4524 23.0042 19.9818C22.2991 19.5113 21.7389 18.8719 21.3153 18.0609C20.8944 17.2499 20.6826 16.3365 20.6826 15.3179C20.6826 14.2993 20.8972 13.3665 21.3236 12.5638C21.7501 11.7611 22.3298 11.13 23.06 10.6733C23.7902 10.2166 24.6096 9.98682 25.5181 9.98682C26.0588 9.98682 26.5521 10.0643 26.9981 10.2221C27.444 10.3799 27.837 10.5985 28.1714 10.8781C28.5059 11.1604 28.7846 11.4815 28.9992 11.8496C29.2166 12.215 29.3503 12.6081 29.4033 13.026L28.949 12.8682V10.2027H31.0003V20.4939H28.949V18.0443L29.4228 17.9059C29.3448 18.2602 29.1831 18.6006 28.9406 18.9356C28.6982 19.2677 28.3888 19.5666 28.0126 19.8268C27.6363 20.087 27.2238 20.2974 26.7695 20.4552C26.3152 20.6129 25.8387 20.6904 25.3398 20.6904L25.3426 20.6877ZM25.8749 18.8248C26.4936 18.8248 27.0399 18.6754 27.5137 18.3737C27.9875 18.072 28.3581 17.6568 28.6285 17.1281C28.8988 16.5994 29.0326 15.9932 29.0326 15.3151C29.0326 14.6369 28.896 14.0529 28.6285 13.5325C28.3581 13.0094 27.9875 12.597 27.5137 12.298C27.0399 11.9963 26.4936 11.8469 25.8749 11.8469C25.2562 11.8469 24.7322 11.9963 24.2668 12.298C23.7985 12.5997 23.4306 13.0094 23.1603 13.5325C22.89 14.0557 22.7562 14.6508 22.7562 15.3151C22.7562 15.9794 22.89 16.5994 23.1603 17.1281C23.4306 17.6568 23.7985 18.072 24.2668 18.3737C24.735 18.6754 25.2701 18.8248 25.8749 18.8248Z" fill="white"/>
<path d="M33.2578 20.491V10.1998H35.3091V13.4327L35.1112 12.6494C35.2561 12.1539 35.5014 11.7028 35.8526 11.2959C36.2009 10.8918 36.6023 10.5707 37.0566 10.3354C37.5108 10.1001 37.9819 9.98389 38.4668 9.98389C38.6898 9.98389 38.8542 10.0033 39.0604 10.042V12.3754C38.9016 12.309 38.7288 12.2536 38.5365 12.2093C38.347 12.1623 38.1574 12.1401 37.9735 12.1401C37.6168 12.1401 37.2795 12.2093 36.9562 12.3449C36.6329 12.4833 36.3514 12.6716 36.109 12.9124C35.8665 13.1532 35.6714 13.4355 35.5265 13.7538C35.3815 14.0749 35.3091 14.4237 35.3091 14.8029V20.4882H33.2578V20.491Z" fill="white"/>
<path d="M90.8522 20.491V10.1998H92.9034V13.4327L92.7056 12.6494C92.8505 12.1539 93.0957 11.7028 93.4469 11.2959C93.7953 10.8918 94.1966 10.5707 94.6509 10.3354C95.1052 10.1001 95.5762 9.98389 96.0612 9.98389C96.2841 9.98389 96.4486 10.0033 96.6548 10.042V12.3754C96.4959 12.309 96.3231 12.2536 96.1308 12.2093C95.9413 12.1623 95.7518 12.1401 95.5679 12.1401C95.2111 12.1401 94.8739 12.2093 94.5506 12.3449C94.2273 12.4833 93.9458 12.6716 93.7033 12.9124C93.4608 13.1532 93.2658 13.4355 93.1208 13.7538C92.9759 14.0749 92.9034 14.4237 92.9034 14.8029V20.4882H90.8522V20.491Z" fill="white"/>
<path d="M60.3981 24.9998C59.6624 24.9998 58.9266 24.8863 58.1964 24.6566C57.4662 24.4268 56.8781 24.1306 56.4294 23.7653L57.1791 22.1959C57.4411 22.3924 57.7504 22.564 58.1072 22.7162C58.4611 22.8657 58.8374 22.9847 59.2332 23.0678C59.6289 23.1536 60.0163 23.1951 60.3981 23.1951C61.1228 23.1951 61.7276 23.0788 62.2125 22.8436C62.7002 22.6083 63.0681 22.2623 63.319 21.8056C63.5698 21.3489 63.6952 20.7787 63.6952 20.1005V18.1215L63.9126 18.2599C63.8457 18.664 63.6339 19.0542 63.2716 19.4252C62.9093 19.7988 62.4578 20.1005 61.9199 20.3358C61.3792 20.5711 60.8273 20.6901 60.2616 20.6901C59.275 20.6901 58.397 20.4576 57.6278 19.9953C56.8586 19.5303 56.2482 18.8965 55.8023 18.0938C55.3536 17.2911 55.1306 16.3721 55.1306 15.3397C55.1306 14.3072 55.3508 13.3883 55.7911 12.5856C56.2315 11.7829 56.8363 11.149 57.6055 10.684C58.3747 10.219 59.2415 9.98926 60.2003 9.98926C60.596 9.98926 60.9751 10.0391 61.3457 10.136C61.7136 10.2328 62.0564 10.3712 62.3714 10.5484C62.6863 10.7255 62.9706 10.9165 63.2186 11.1269C63.4695 11.3372 63.6729 11.5587 63.8318 11.794C63.9906 12.0292 64.0882 12.2507 64.1272 12.461L63.6924 12.6188V10.2079H65.7242V19.8708C65.7242 20.6929 65.6016 21.4236 65.3591 22.0575C65.1166 22.6913 64.7627 23.2255 64.3028 23.6656C63.8429 24.103 63.2827 24.4351 62.625 24.6649C61.9672 24.8946 61.2231 25.0081 60.3953 25.0081L60.3981 24.9998ZM60.479 18.8245C61.1228 18.8245 61.6969 18.675 62.1958 18.3733C62.6947 18.0716 63.0849 17.662 63.3608 17.1388C63.6367 16.6157 63.776 16.0151 63.776 15.3341C63.776 14.6532 63.6339 14.0498 63.3524 13.5211C63.0681 12.9925 62.6807 12.5773 62.1874 12.2756C61.6941 11.9739 61.1256 11.8244 60.479 11.8244C59.8324 11.8244 59.2861 11.9794 58.79 12.2839C58.2939 12.5884 57.9093 13.0091 57.625 13.5378C57.3407 14.0664 57.2014 14.6643 57.2014 15.3314C57.2014 15.9984 57.3435 16.5963 57.625 17.125C57.9065 17.6537 58.2967 18.0689 58.79 18.3706C59.2833 18.6723 59.8463 18.8217 60.479 18.8217V18.8245Z" fill="white"/>
<path d="M72.8144 20.6875C71.7498 20.6875 70.8049 20.4633 69.9828 20.0121C69.1606 19.561 68.5168 18.9437 68.0486 18.1604C67.5803 17.3771 67.349 16.4747 67.349 15.4561C67.349 14.6451 67.48 13.9088 67.7448 13.2418C68.0067 12.5747 68.3718 11.9962 68.8401 11.5063C69.3083 11.0163 69.8657 10.6371 70.5179 10.3686C71.17 10.1001 71.8752 9.96729 72.6388 9.96729C73.3105 9.96729 73.9348 10.0946 74.5145 10.3493C75.0942 10.6039 75.5959 10.9527 76.0251 11.3983C76.4515 11.8439 76.7804 12.3699 77.0117 12.976C77.243 13.585 77.3489 14.2465 77.3378 14.9662L77.3183 15.8298H68.8512L68.3969 14.2216H75.5624L75.267 14.5538V14.0832C75.228 13.6514 75.0831 13.2667 74.8322 12.9262C74.5814 12.5858 74.2665 12.3173 73.8846 12.1235C73.5028 11.927 73.0875 11.8301 72.6416 11.8301C71.9309 11.8301 71.3317 11.9657 70.8467 12.2315C70.359 12.4999 69.9911 12.893 69.7403 13.4078C69.4895 13.9254 69.364 14.5621 69.364 15.3177C69.364 16.0374 69.5145 16.6602 69.8183 17.1888C70.1221 17.7175 70.5485 18.1272 71.1004 18.415C71.6522 18.7029 72.2904 18.8468 73.0151 18.8468C73.5279 18.8468 74.0045 18.761 74.4448 18.5922C74.8852 18.4233 75.3618 18.1161 75.8746 17.6705L76.9002 19.1015C76.5853 19.4143 76.2007 19.691 75.7464 19.9236C75.2921 20.1588 74.8127 20.3443 74.3055 20.4827C73.7982 20.6211 73.3021 20.6875 72.8144 20.6875Z" fill="white"/>
<path d="M82.9397 20.6877C82.0841 20.6877 81.3037 20.4524 80.6014 19.9818C79.8963 19.5113 79.3361 18.8719 78.9125 18.0609C78.4916 17.2499 78.2798 16.3365 78.2798 15.3179C78.2798 14.2993 78.4944 13.3665 78.9208 12.5638C79.3472 11.7611 79.9269 11.13 80.6571 10.6733C81.3873 10.2166 82.2067 9.98682 83.1153 9.98682C83.656 9.98682 84.1493 10.0643 84.5952 10.2221C85.0412 10.3799 85.4341 10.5985 85.7686 10.8781C86.103 11.1604 86.3817 11.4815 86.5963 11.8496C86.8137 12.215 86.9475 12.6081 87.0005 13.026L86.5462 12.8682V10.2027H88.5974V20.4939H86.5462V18.0443L87.02 17.9059C86.9419 18.2602 86.7803 18.6006 86.5378 18.9356C86.2953 19.2677 85.986 19.5666 85.6097 19.8268C85.2335 20.087 84.821 20.2974 84.3667 20.4552C83.9124 20.6129 83.4358 20.6904 82.9369 20.6904L82.9397 20.6877ZM83.4721 18.8248C84.0908 18.8248 84.637 18.6754 85.1108 18.3737C85.5846 18.072 85.9553 17.6568 86.2257 17.1281C86.496 16.5994 86.6298 15.9932 86.6298 15.3151C86.6298 14.6369 86.4932 14.0529 86.2257 13.5325C85.9553 13.0094 85.5846 12.597 85.1108 12.298C84.637 11.9963 84.0908 11.8469 83.4721 11.8469C82.8533 11.8469 82.3294 11.9963 81.8639 12.298C81.3957 12.5997 81.0278 13.0094 80.7575 13.5325C80.4871 14.0557 80.3533 14.6508 80.3533 15.3151C80.3533 15.9794 80.4871 16.5994 80.7575 17.1281C81.0278 17.6568 81.3957 18.072 81.8639 18.3737C82.3322 18.6754 82.8673 18.8248 83.4721 18.8248Z" fill="white"/>
<path d="M41.2958 15.3619C40.8806 15.1239 40.3594 15.4228 40.3594 15.8989V24.8033H42.419V18.3706L52.1625 23.9591L53.1937 22.1849L41.2958 15.3619Z" fill="white"/>
<path d="M42.0928 13.2808C41.7695 13.4662 41.7695 13.9285 42.0928 14.1139L49.0939 18.1302L50.0498 16.486L45.1864 13.6987L54.0186 8.63341L53.0626 6.98926L42.0928 13.2808Z" fill="white"/>
<path d="M40.3564 11.5451C40.3564 12.0239 40.8776 12.3201 41.2929 12.082L41.8586 11.7582L49.4032 7.43468L48.372 5.66043L42.4161 9.07606V0H40.3536V11.5451H40.3564Z" fill="white"/>
<rect x="97" y="20" width="2" height="2" fill="#727272"/>
</g>
<defs>
<clipPath id="clip0_33_19">
<rect width="157" height="25" fill="white"/>
</clipPath>
</defs>
</svg>
