<svg width="97" height="24" viewBox="0 0 97 24" fill="none" xmlns="http://www.w3.org/2000/svg">
<path d="M4.08581 19.3C3.21625 19.3 2.43309 19.1606 1.73633 18.8791C1.03957 18.5977 0.459863 18.1845 0 17.6345L1.38238 16.537C1.77814 16.9631 2.20734 17.273 2.67557 17.4615C3.14379 17.65 3.67333 17.7455 4.26418 17.7455C4.50108 17.7455 4.72126 17.7171 4.92471 17.6629C5.12817 17.6087 5.30654 17.526 5.45704 17.415C5.60754 17.304 5.7246 17.1748 5.80263 17.0225C5.88067 16.8701 5.92248 16.7023 5.92248 16.519C5.92248 16.2013 5.79706 15.9457 5.54623 15.752C5.41523 15.6668 5.20621 15.5713 4.92471 15.468C4.64044 15.3647 4.27533 15.2588 3.8294 15.1478C3.06575 14.9644 2.44145 14.7579 1.95372 14.5255C1.46599 14.293 1.09252 14.0322 0.827753 13.7404C0.629873 13.508 0.484946 13.255 0.392974 12.9813C0.301001 12.7075 0.253621 12.4054 0.253621 12.0749C0.253621 11.6721 0.348381 11.3028 0.540687 10.9697C0.730207 10.634 0.994976 10.3422 1.32942 10.0917C1.66387 9.84123 2.05963 9.65015 2.51392 9.51587C2.96821 9.38159 3.45037 9.31445 3.96597 9.31445C4.4537 9.31445 4.93586 9.37643 5.41802 9.49779C5.89739 9.61916 6.34332 9.79734 6.75023 10.0272C7.15714 10.2596 7.49995 10.5333 7.77586 10.8509L6.61088 12.0387C6.36004 11.8063 6.08691 11.6023 5.79149 11.4267C5.49606 11.2511 5.19506 11.1117 4.89406 11.0162C4.59027 10.918 4.31435 10.869 4.0663 10.869C3.79039 10.869 3.53955 10.8948 3.31659 10.9413C3.09362 10.9903 2.9041 11.0626 2.7536 11.1608C2.6031 11.2589 2.48605 11.3803 2.40801 11.5274C2.32997 11.6746 2.28817 11.8373 2.28817 12.0207C2.3021 12.1782 2.34391 12.3279 2.41637 12.47C2.48883 12.6094 2.59195 12.7282 2.72295 12.8263C2.86787 12.9244 3.08526 13.0277 3.37512 13.1362C3.66497 13.2472 4.03286 13.3505 4.48157 13.4461C5.13932 13.6036 5.68279 13.7792 6.10921 13.9677C6.53563 14.1562 6.87565 14.3731 7.12648 14.6158C7.38846 14.8482 7.57241 15.1168 7.67832 15.4215C7.78423 15.7262 7.83718 16.0671 7.83718 16.4467C7.83718 16.9941 7.66996 17.4873 7.33272 17.9185C6.99828 18.3524 6.54678 18.6906 5.98101 18.9334C5.41523 19.1761 4.78257 19.3 4.08581 19.3Z" fill="white"/>
<path d="M9.49268 23.1398V9.51585H11.5439V11.7108L11.229 11.5455C11.307 11.1788 11.5328 10.8302 11.9007 10.4945C12.2686 10.1588 12.7201 9.88511 13.2524 9.67079C13.7847 9.45646 14.3338 9.35059 14.8995 9.35059C15.8332 9.35059 16.6638 9.56491 17.3856 9.99099C18.1102 10.4171 18.6816 11.0032 19.1024 11.7469C19.5233 12.4906 19.7351 13.3453 19.7351 14.3059C19.7351 15.2665 19.5288 16.1084 19.1136 16.8572C18.6983 17.6061 18.1297 18.1974 17.4051 18.6312C16.6805 19.065 15.8667 19.2794 14.9581 19.2794C14.3533 19.2794 13.768 19.1658 13.2022 18.9411C12.6365 18.7164 12.1571 18.4272 11.7613 18.0735C11.3656 17.7197 11.1231 17.3556 11.0311 16.976L11.5439 16.7204V23.1398H9.49268ZM14.6236 17.5441C15.2284 17.5441 15.7691 17.4047 16.2429 17.1232C16.7167 16.8443 17.093 16.4595 17.3689 15.9715C17.6448 15.4834 17.7841 14.9283 17.7841 14.3085C17.7841 13.6888 17.6504 13.1362 17.38 12.6533C17.1097 12.173 16.739 11.7908 16.2652 11.5094C15.7914 11.2279 15.2451 11.0884 14.6264 11.0884C14.0077 11.0884 13.4614 11.2253 12.9876 11.499C12.5138 11.7727 12.1404 12.1549 11.8617 12.643C11.5857 13.131 11.4464 13.6862 11.4464 14.3059C11.4464 14.9257 11.5857 15.4835 11.8617 15.9689C12.1376 16.457 12.5138 16.8417 12.9876 17.1206C13.4614 17.4021 14.0077 17.5415 14.6264 17.5415L14.6236 17.5441Z" fill="white"/>
<path d="M25.3426 19.2999C24.4869 19.2999 23.7066 19.0804 23.0042 18.6414C22.2991 18.2024 21.7389 17.6059 21.3153 16.8493C20.8944 16.0927 20.6826 15.2406 20.6826 14.2903C20.6826 13.3401 20.8972 12.4698 21.3236 11.721C21.7501 10.9721 22.3298 10.3834 23.06 9.95729C23.7902 9.53122 24.6096 9.31689 25.5181 9.31689C26.0588 9.31689 26.5521 9.3892 26.9981 9.53639C27.444 9.68357 27.837 9.88757 28.1714 10.1484C28.5059 10.4118 28.7846 10.7113 28.9992 11.0548C29.2166 11.3956 29.3503 11.7623 29.4033 12.1522L28.949 12.005V9.51831H31.0003V19.1191H28.949V16.8338L29.4228 16.7047C29.3448 17.0353 29.1831 17.3529 28.9406 17.6653C28.6982 17.9752 28.3888 18.2541 28.0126 18.4968C27.6363 18.7396 27.2238 18.9358 26.7695 19.083C26.3152 19.2302 25.8387 19.3025 25.3398 19.3025L25.3426 19.2999ZM25.8749 17.562C26.4936 17.562 27.0399 17.4226 27.5137 17.1411C27.9875 16.8597 28.3581 16.4723 28.6285 15.9791C28.8988 15.4859 29.0326 14.9204 29.0326 14.2877C29.0326 13.6551 28.896 13.1102 28.6285 12.6248C28.3581 12.1367 27.9875 11.752 27.5137 11.4731C27.0399 11.1916 26.4936 11.0522 25.8749 11.0522C25.2562 11.0522 24.7322 11.1916 24.2668 11.4731C23.7985 11.7545 23.4306 12.1367 23.1603 12.6248C22.89 13.1128 22.7562 13.668 22.7562 14.2877C22.7562 14.9075 22.89 15.4859 23.1603 15.9791C23.4306 16.4723 23.7985 16.8597 24.2668 17.1411C24.735 17.4226 25.2701 17.562 25.8749 17.562Z" fill="white"/>
<path d="M33.2578 19.1167V9.51587H35.3091V12.5319L35.1112 11.8012C35.2561 11.3389 35.5014 10.918 35.8526 10.5384C36.2009 10.1614 36.6023 9.86189 37.0566 9.6424C37.5108 9.42291 37.9819 9.31445 38.4668 9.31445C38.6898 9.31445 38.8542 9.33253 39.0604 9.36868V11.5455C38.9016 11.4836 38.7288 11.4319 38.5365 11.3906C38.347 11.3467 38.1574 11.326 37.9735 11.326C37.6168 11.326 37.2795 11.3906 36.9562 11.5171C36.6329 11.6462 36.3514 11.8218 36.109 12.0465C35.8665 12.2711 35.6714 12.5345 35.5265 12.8315C35.3815 13.131 35.3091 13.4564 35.3091 13.8102V19.1141H33.2578V19.1167Z" fill="white"/>
<path d="M90.8522 19.1167V9.51587H92.9034V12.5319L92.7056 11.8012C92.8505 11.3389 93.0957 10.918 93.4469 10.5384C93.7953 10.1614 94.1966 9.86189 94.6509 9.6424C95.1052 9.42291 95.5762 9.31445 96.0612 9.31445C96.2841 9.31445 96.4486 9.33253 96.6548 9.36868V11.5455C96.4959 11.4836 96.3231 11.4319 96.1308 11.3906C95.9413 11.3467 95.7518 11.326 95.5679 11.326C95.2111 11.326 94.8739 11.3906 94.5506 11.5171C94.2273 11.6462 93.9458 11.8218 93.7033 12.0465C93.4608 12.2711 93.2658 12.5345 93.1208 12.8315C92.9759 13.131 92.9034 13.4564 92.9034 13.8102V19.1141H90.8522V19.1167Z" fill="white"/>
<path d="M60.3981 23.3229C59.6624 23.3229 58.9266 23.2171 58.1964 23.0027C57.4662 22.7884 56.8781 22.5121 56.4294 22.1712L57.1791 20.7071C57.4411 20.8904 57.7504 21.0505 58.1072 21.1926C58.4611 21.332 58.8374 21.443 59.2332 21.5205C59.6289 21.6006 60.0163 21.6393 60.3981 21.6393C61.1228 21.6393 61.7276 21.5308 62.2125 21.3113C62.7002 21.0919 63.0681 20.7691 63.319 20.343C63.5698 19.9169 63.6952 19.385 63.6952 18.7523V16.906L63.9126 17.0351C63.8457 17.4121 63.6339 17.7762 63.2716 18.1223C62.9093 18.4709 62.4578 18.7523 61.9199 18.9718C61.3792 19.1913 60.8273 19.3023 60.2616 19.3023C59.275 19.3023 58.397 19.0854 57.6278 18.6542C56.8586 18.2204 56.2482 17.629 55.8023 16.8802C55.3536 16.1313 55.1306 15.274 55.1306 14.3108C55.1306 13.3477 55.3508 12.4903 55.7911 11.7415C56.2315 10.9926 56.8363 10.4013 57.6055 9.96748C58.3747 9.53366 59.2415 9.31934 60.2003 9.31934C60.596 9.31934 60.9751 9.36582 61.3457 9.4562C61.7136 9.54657 62.0564 9.67569 62.3714 9.84095C62.6863 10.0062 62.9706 10.1844 63.2186 10.3806C63.4695 10.5769 63.6729 10.7835 63.8318 11.003C63.9906 11.2225 64.0882 11.429 64.1272 11.6253L63.6924 11.7725V9.52333H65.7242V18.538C65.7242 19.3049 65.6016 19.9866 65.3591 20.578C65.1166 21.1693 64.7627 21.6677 64.3028 22.0783C63.8429 22.4863 63.2827 22.7961 62.625 23.0105C61.9672 23.2248 61.2231 23.3307 60.3953 23.3307L60.3981 23.3229ZM60.479 17.5619C61.1228 17.5619 61.6969 17.4225 62.1958 17.141C62.6947 16.8595 63.0849 16.4774 63.3608 15.9893C63.6367 15.5013 63.776 14.9409 63.776 14.3057C63.776 13.6704 63.6339 13.1075 63.3524 12.6143C63.0681 12.1211 62.6807 11.7337 62.1874 11.4523C61.6941 11.1708 61.1256 11.0314 60.479 11.0314C59.8324 11.0314 59.2861 11.176 58.79 11.46C58.2939 11.7441 57.9093 12.1366 57.625 12.6298C57.3407 13.123 57.2014 13.6808 57.2014 14.3031C57.2014 14.9254 57.3435 15.4832 57.625 15.9764C57.9065 16.4696 58.2967 16.8569 58.79 17.1384C59.2833 17.4199 59.8463 17.5593 60.479 17.5593V17.5619Z" fill="white"/>
<path d="M72.8144 19.2999C71.7498 19.2999 70.8049 19.0908 69.9828 18.6698C69.1606 18.2489 68.5168 17.6731 68.0486 16.9423C67.5803 16.2115 67.349 15.3697 67.349 14.4194C67.349 13.6628 67.48 12.976 67.7448 12.3536C68.0067 11.7313 68.3718 11.1916 68.8401 10.7346C69.3083 10.2775 69.8657 9.92373 70.5179 9.67326C71.17 9.42278 71.8752 9.29883 72.6388 9.29883C73.3105 9.29883 73.9348 9.41761 74.5145 9.65518C75.0942 9.89275 75.5959 10.2181 76.0251 10.6339C76.4515 11.0496 76.7804 11.5402 77.0117 12.1057C77.243 12.6738 77.3489 13.291 77.3378 13.9624L77.3183 14.7681H68.8512L68.3969 13.2678H75.5624L75.267 13.5776V13.1386C75.228 12.7358 75.0831 12.3769 74.8322 12.0593C74.5814 11.7416 74.2665 11.4912 73.8846 11.3104C73.5028 11.1271 73.0875 11.0367 72.6416 11.0367C71.9309 11.0367 71.3317 11.1632 70.8467 11.4111C70.359 11.6616 69.9911 12.0283 69.7403 12.5086C69.4895 12.9915 69.364 13.5854 69.364 14.2903C69.364 14.9617 69.5145 15.5427 69.8183 16.0359C70.1221 16.5292 70.5485 16.9113 71.1004 17.1799C71.6522 17.4484 72.2904 17.5827 73.0151 17.5827C73.5279 17.5827 74.0045 17.5027 74.4448 17.3451C74.8852 17.1876 75.3618 16.901 75.8746 16.4853L76.9002 17.8203C76.5853 18.1121 76.2007 18.3703 75.7464 18.5872C75.2921 18.8067 74.8127 18.9797 74.3055 19.1088C73.7982 19.2379 73.3021 19.2999 72.8144 19.2999Z" fill="white"/>
<path d="M82.9397 19.2999C82.0841 19.2999 81.3037 19.0804 80.6014 18.6414C79.8963 18.2024 79.3361 17.6059 78.9125 16.8493C78.4916 16.0927 78.2798 15.2406 78.2798 14.2903C78.2798 13.3401 78.4944 12.4698 78.9208 11.721C79.3472 10.9721 79.9269 10.3834 80.6571 9.95729C81.3873 9.53122 82.2067 9.31689 83.1153 9.31689C83.656 9.31689 84.1493 9.3892 84.5952 9.53639C85.0412 9.68357 85.4341 9.88757 85.7686 10.1484C86.103 10.4118 86.3817 10.7113 86.5963 11.0548C86.8137 11.3956 86.9475 11.7623 87.0005 12.1522L86.5462 12.005V9.51831H88.5974V19.1191H86.5462V16.8338L87.02 16.7047C86.9419 17.0353 86.7803 17.3529 86.5378 17.6653C86.2953 17.9752 85.986 18.2541 85.6097 18.4968C85.2335 18.7396 84.821 18.9358 84.3667 19.083C83.9124 19.2302 83.4358 19.3025 82.9369 19.3025L82.9397 19.2999ZM83.4721 17.562C84.0908 17.562 84.637 17.4226 85.1108 17.1411C85.5846 16.8597 85.9553 16.4723 86.2257 15.9791C86.496 15.4859 86.6298 14.9204 86.6298 14.2877C86.6298 13.6551 86.4932 13.1102 86.2257 12.6248C85.9553 12.1367 85.5846 11.752 85.1108 11.4731C84.637 11.1916 84.0908 11.0522 83.4721 11.0522C82.8533 11.0522 82.3294 11.1916 81.8639 11.4731C81.3957 11.7545 81.0278 12.1367 80.7575 12.6248C80.4871 13.1128 80.3533 13.668 80.3533 14.2877C80.3533 14.9075 80.4871 15.4859 80.7575 15.9791C81.0278 16.4723 81.3957 16.8597 81.8639 17.1411C82.3322 17.4226 82.8673 17.562 83.4721 17.562Z" fill="white"/>
<path d="M41.2958 14.3319C40.8806 14.1098 40.3594 14.3887 40.3594 14.8328V23.14H42.419V17.1388L52.1625 22.3524L53.1937 20.6971L41.2958 14.3319Z" fill="white"/>
<path d="M42.0928 12.39C41.7695 12.563 41.7695 12.9942 42.0928 13.1672L49.0939 16.9141L50.0498 15.3802L45.1864 12.7799L54.0186 8.05437L53.0626 6.52051L42.0928 12.39Z" fill="white"/>
<path d="M40.3564 10.7706C40.3564 11.2173 40.8776 11.4936 41.2929 11.2716L41.8586 10.9694L49.4032 6.93595L48.372 5.28072L42.4161 8.46723V0H40.3536V10.7706H40.3564Z" fill="white"/>
</svg>
