<svg width="33" height="33" viewBox="0 0 33 33" fill="none" xmlns="http://www.w3.org/2000/svg">
<g opacity="0.5">
<path d="M21.3537 16.3558C20.8103 16.2508 21.0749 15.9638 21.0749 15.9638C21.0749 15.9638 21.6065 15.0981 20.9685 14.4681C20.1795 13.6887 18.2587 14.5661 18.2587 14.5661C17.5263 14.7901 17.72 14.4634 17.824 13.9081C17.824 13.2524 17.5971 12.144 15.6433 12.7974C13.6918 13.4577 12.0167 15.7655 12.0167 15.7655C10.852 17.2986 11.0056 18.484 11.0056 18.484C11.2961 21.1021 14.1147 21.8208 16.3072 21.9912C18.6131 22.1685 21.727 21.2071 22.6696 19.2283C23.6147 17.2472 21.8994 16.4632 21.3537 16.3559V16.3558ZM16.4773 21.2538C14.1879 21.3588 12.3357 20.2271 12.3357 18.7197C12.3357 17.2099 14.1879 16.0012 16.4773 15.8961C18.769 15.7912 20.6236 16.7245 20.6236 18.2296C20.6236 19.7347 18.769 21.1511 16.4773 21.2538ZM16.0213 16.8879C13.7178 17.1539 13.9848 19.282 13.9848 19.282C13.9848 19.282 13.9612 19.9564 14.6014 20.2994C15.9481 21.0204 17.3373 20.584 18.0366 19.6903C18.7383 18.799 18.3272 16.6242 16.0213 16.8879ZM15.4401 19.8771C15.0102 19.926 14.6629 19.681 14.6629 19.3263C14.6629 18.974 14.97 18.6029 15.3999 18.5587C15.8938 18.5119 16.2151 18.792 16.2151 19.149C16.2174 19.5013 15.8677 19.8281 15.4401 19.8771ZM16.7986 18.736C16.6521 18.8433 16.4726 18.8293 16.397 18.6987C16.3166 18.5726 16.3474 18.3719 16.4938 18.267C16.6639 18.1409 16.8411 18.1783 16.9191 18.3043C16.9947 18.4303 16.9404 18.6239 16.7986 18.736ZM22.4759 15.4341C22.6625 15.4341 22.8185 15.2988 22.8468 15.1215C22.8492 15.1075 22.8515 15.0958 22.8515 15.0818C23.1327 12.5873 20.7795 13.0167 20.7795 13.0167C20.5716 13.0167 20.4039 13.1823 20.4039 13.3924C20.4039 13.5977 20.5716 13.7634 20.7795 13.7634C22.4688 13.3947 22.0979 15.0631 22.0979 15.0631C22.0955 15.2685 22.2656 15.4341 22.4759 15.4341ZM22.2018 11.0799C21.3891 10.8909 20.5504 11.0543 20.3165 11.0986C20.2976 11.1009 20.2811 11.1173 20.2645 11.1196C20.2574 11.1219 20.2504 11.1289 20.2504 11.1289C20.0188 11.1943 19.8511 11.4043 19.8511 11.6539C19.8511 11.9503 20.0944 12.1953 20.3991 12.1953C20.3991 12.1953 20.6945 12.1556 20.8953 12.0786C21.0938 11.9993 22.7806 12.0203 23.617 13.4064C24.073 14.4191 23.8179 15.0958 23.7847 15.2055C23.7847 15.2055 23.6761 15.4692 23.6761 15.7281C23.6761 16.0268 23.9194 16.2159 24.2242 16.2159C24.477 16.2159 24.6896 16.1808 24.751 15.7585H24.7534C25.6559 12.802 23.6571 11.4136 22.2018 11.0799Z" fill="white"/>
</g>
</svg>
