<svg width="33" height="33" viewBox="0 0 33 33" fill="none" xmlns="http://www.w3.org/2000/svg">
<g opacity="0.5">
<path d="M20.1469 13.935C20.3171 13.935 20.4856 13.9471 20.6526 13.9658C20.1981 11.8499 17.936 10.2778 15.3538 10.2778C12.4668 10.2778 10.1022 12.2452 10.1022 14.7438C10.1022 16.1866 10.8889 17.3704 12.2036 18.2893L11.6784 19.8689L13.5143 18.9485C14.1711 19.0783 14.6982 19.2122 15.3538 19.2122C15.5186 19.2122 15.6819 19.204 15.8441 19.1913C15.7415 18.8404 15.6819 18.4727 15.6819 18.0908C15.682 15.7966 17.6522 13.935 20.1469 13.935ZM17.2862 12.4045C17.7346 12.4045 18.0981 12.768 18.0981 13.2164C18.0981 13.6648 17.7346 14.0283 17.2862 14.0283C16.8377 14.0283 16.4743 13.6648 16.4743 13.2164C16.4743 12.768 16.8378 12.4045 17.2862 12.4045ZM13.6118 14.0447C13.1634 14.0447 12.7999 13.6812 12.7999 13.2328C12.7999 12.7844 13.1634 12.4209 13.6118 12.4209C14.0602 12.4209 14.4237 12.7844 14.4237 13.2328C14.4237 13.6812 14.0602 14.0447 13.6118 14.0447ZM24.903 18.0448C24.903 15.9453 22.8021 14.2338 20.4423 14.2338C17.9436 14.2338 15.9756 15.9453 15.9756 18.0448C15.9756 20.148 17.9436 21.8558 20.4423 21.8558C20.9652 21.8558 21.4928 21.7238 22.018 21.5921L23.4586 22.3811L23.0635 21.0687C24.1177 20.2779 24.903 19.2292 24.903 18.0448ZM19.0701 17.4563C18.7507 17.4563 18.4919 17.1974 18.4919 16.8781C18.4919 16.5588 18.7507 16.2999 19.0701 16.2999C19.3894 16.2999 19.6482 16.5588 19.6482 16.8781C19.6483 17.1974 19.3894 17.4563 19.0701 17.4563ZM21.9571 17.4891C21.6377 17.4891 21.3789 17.2302 21.3789 16.9109C21.3789 16.5916 21.6377 16.3328 21.9571 16.3328C22.2764 16.3328 22.5352 16.5916 22.5352 16.9109C22.5352 17.2302 22.2764 17.4891 21.9571 17.4891Z" fill="white"/>
</g>
</svg>
