<svg width="33" height="33" viewBox="0 0 33 33" fill="none" xmlns="http://www.w3.org/2000/svg">
<g opacity="0.5">
<path d="M30.3848 19.722C29.8546 20.7818 29.2892 21.0731 28.1177 20.8946C27.3652 20.78 26.9539 20.3553 26.8428 19.5078C27.297 19.5078 27.7453 19.4965 28.1917 19.5116C28.492 19.5228 28.6284 19.4251 28.6167 19.1207C28.5992 18.681 28.6206 18.2375 28.605 17.7978C28.5914 17.4295 28.3828 17.189 27.9929 17.1815C27.2093 17.1645 26.4256 17.1758 25.5659 17.1758V20.9172H23.8213V17.2002H22.061V15.4714H23.7725V14.0038H22.636V12.3145C23.0103 12.2976 23.369 12.2788 23.7901 12.26V11.6738H25.5484C25.4802 12.1454 25.6712 12.2976 26.18 12.3052C27.5309 12.3258 28.2424 13.0587 28.2678 14.3665C28.2756 14.7255 28.2697 15.0844 28.2697 15.479C29.3614 15.4301 30.0339 15.8642 30.3848 16.7568V19.722ZM25.5601 13.9231C25.5601 14.4398 25.5387 14.825 25.5737 15.2046C25.5835 15.3023 25.7706 15.4583 25.8759 15.4583C26.0884 15.4602 26.4782 15.3925 26.4861 15.3192C26.5309 14.9265 26.5484 14.5037 26.4276 14.1354C26.3866 14.0076 25.9266 14.0057 25.5601 13.9231V13.9231ZM8.51674 11.6719C8.51284 14.2444 8.51479 16.8188 8.50113 19.3913C8.49529 20.4925 7.77987 21.0806 6.70185 20.9078C5.9962 20.795 5.61412 20.3346 5.58682 19.5228H6.7584V11.6738C7.34516 11.6719 7.93191 11.6719 8.51674 11.6719ZM15.9887 11.6719C15.5579 12.5006 15.0764 13.3086 14.7703 14.0959C15.4877 14.0565 16.131 14.0208 16.899 13.9776C16.4936 14.7668 16.1329 15.4658 15.7723 16.1667C15.7236 16.2607 15.6768 16.3584 15.628 16.4524C15.2498 17.1833 15.2518 17.1852 16.09 17.2078C16.1777 17.2096 16.2635 17.2209 16.4234 17.2341C16.1875 17.6794 15.9809 18.0853 15.7586 18.4837C15.7216 18.5494 15.6222 18.6246 15.552 18.6246C14.9321 18.6227 14.3064 18.6434 13.6904 18.5776C13.244 18.5288 13.0744 18.2037 13.2478 17.7941C13.4603 17.2886 13.7118 16.7981 13.9457 16.302C14.0257 16.131 14.1056 15.96 14.2245 15.7064C13.8794 15.7064 13.6299 15.7139 13.3804 15.7045C12.6396 15.68 12.394 15.3625 12.6981 14.7142C13.1796 13.6882 13.7177 12.6847 14.2303 11.6719H15.9887ZM3.13257 18.1323C3.24367 17.5385 3.38403 16.9466 3.4581 16.349C3.55169 15.5974 3.58872 14.8401 3.65304 14.0508H5.50303C5.18918 16.0897 5.56539 18.2488 4.1794 20.1242C3.809 19.4965 3.46979 18.9196 3.13062 18.3428C3.13257 18.2751 3.13257 18.2037 3.13257 18.1323ZM30.3848 13.3668C29.9891 14.0302 29.3633 14.0471 28.6927 13.9456C28.492 13.1038 28.6362 12.5513 29.1021 12.3465C29.5368 12.1548 29.9345 12.307 30.3848 12.8388L30.3848 13.3668Z" fill="white"/>
<path d="M20.211 19.2408C20.6925 19.2408 21.1448 19.2502 21.597 19.237C21.8816 19.2295 21.9694 19.3423 21.9869 19.611C22.0746 20.9489 22.0824 20.9489 20.6789 20.9489H15.7197C16.0277 20.3626 16.2772 19.8478 16.5715 19.3592C16.6261 19.2671 16.8639 19.2502 17.0179 19.2464C17.4546 19.2314 17.8932 19.2408 18.3727 19.2408V13.9999H17.2519V12.3369H21.3202V13.9736H20.2091C20.211 15.7419 20.211 17.4575 20.211 19.2408ZM9.76629 14.0356H11.4993C11.5831 15.0673 11.5461 16.1064 11.778 17.0873C12.051 18.2355 11.6162 19.1243 11.0529 20.03C10.2108 19.3197 9.75265 17.1926 9.76629 14.0356ZM12.8872 19.2201H15.6943C15.3805 19.812 15.1329 20.295 14.862 20.7667C14.8113 20.8531 14.6631 20.9358 14.5578 20.9376C13.7391 20.9508 12.9204 20.9452 11.9808 20.9452C12.3375 20.263 12.6299 19.7087 12.8872 19.2201Z" fill="white"/>
</g>
</svg>
